<?xml version="1.0" encoding="UTF-8" standalone="no"?>
<!-- Created with Inkscape (http://www.inkscape.org/) -->

<svg
   width="297mm"
   height="210mm"
   viewBox="0 0 297 210"
   version="1.1"
   id="svg1"
   inkscape:version="1.3.2 (091e20ef0f, 2023-11-25)"
   xml:space="preserve"
   sodipodi:docname="Inseresting topics and problems - 1.svg"
   xmlns:inkscape="http://www.inkscape.org/namespaces/inkscape"
   xmlns:sodipodi="http://sodipodi.sourceforge.net/DTD/sodipodi-0.dtd"
   xmlns="http://www.w3.org/2000/svg"
   xmlns:svg="http://www.w3.org/2000/svg"><sodipodi:namedview
     id="namedview1"
     pagecolor="#ffffff"
     bordercolor="#cccccc"
     borderopacity="1"
     inkscape:showpageshadow="0"
     inkscape:pageopacity="1"
     inkscape:pagecheckerboard="0"
     inkscape:deskcolor="#f4f4f4"
     inkscape:document-units="mm"
     inkscape:zoom="0.55764763"
     inkscape:cx="709.22923"
     inkscape:cy="319.19798"
     inkscape:window-width="1920"
     inkscape:window-height="1043"
     inkscape:window-x="0"
     inkscape:window-y="0"
     inkscape:window-maximized="1"
     inkscape:current-layer="layer1" /><defs
     id="defs1"><rect
       x="385.6505"
       y="176.79041"
       width="402.78253"
       height="59.393414"
       id="rect2" /><rect
       x="385.6505"
       y="176.79041"
       width="402.78253"
       height="59.393414"
       id="rect5" /><rect
       x="385.6505"
       y="176.79041"
       width="402.78253"
       height="59.393414"
       id="rect35" /></defs><g
     inkscape:label="Layer 1"
     inkscape:groupmode="layer"
     id="layer1"><g
       id="g42"
       inkscape:export-filename="anccTopBar2.svg"
       inkscape:export-xdpi="96"
       inkscape:export-ydpi="96"
       transform="matrix(0.66775593,0,0,0.66775593,49.082699,63.368801)"><g
         id="g43"
         inkscape:export-filename="anccTopBar2.svg"
         inkscape:export-xdpi="96"
         inkscape:export-ydpi="96"
         transform="matrix(1.493917,0,0,1.493917,75.048421,-11.487919)"><rect
           style="fill:#373d4b;fill-opacity:1;stroke-width:0.4;stroke-linecap:round;stroke-linejoin:round"
           id="rect1"
           width="189.63382"
           height="42.365105"
           x="-46.628487"
           y="-7.1054274e-15"
           ry="5.9458451" /><text
           xml:space="preserve"
           transform="matrix(0.68331818,0,0,0.68331818,-252.11857,-113.91104)"
           id="text1"
           style="font-weight:bold;font-family:Roboto;-inkscape-font-specification:'Roboto Bold';white-space:pre;shape-inside:url(#rect2);fill:#b7becb;fill-opacity:1;stroke-width:1.51181;stroke-linecap:round;stroke-linejoin:round"><tspan
             x="385.65039"
             y="187.29102"
             id="tspan1">ANCC Shivalik 2023</tspan></text><text
           xml:space="preserve"
           style="font-weight:bold;font-size:11.1747px;font-family:Roboto;-inkscape-font-specification:'Roboto Bold';fill:#ffffff;fill-opacity:1;stroke-width:1.40784;stroke-linecap:round;stroke-linejoin:round"
           x="-30.561016"
           y="29.56358"
           id="text3"><tspan
             sodipodi:role="line"
             id="tspan3"
             style="stroke-width:1.40784"
             x="-30.561016"
             y="29.56358">Interesting Topics/Problems - 1</tspan></text></g></g><g
       id="g44"
       transform="translate(0.2302164,53.197968)"><rect
         style="fill:#373d4b;fill-opacity:1;stroke-width:0.4;stroke-linecap:round;stroke-linejoin:round"
         id="rect3"
         width="189.63382"
         height="42.365105"
         x="51.990799"
         y="51.802032"
         ry="5.9458451" /><path
         style="font-weight:bold;font-family:Roboto;-inkscape-font-specification:'Roboto Bold';white-space:pre;fill:#fefefe;fill-opacity:1;stroke-width:1.03305;stroke-linecap:round;stroke-linejoin:round"
         d="m 184.62195,62.096593 h 0.61659 q 0.29628,0 0.48846,-0.100099 0.19218,-0.104096 0.28427,-0.288271 0.0961,-0.188179 0.0961,-0.436415 0,-0.224217 -0.0881,-0.396379 -0.0841,-0.176167 -0.26025,-0.276266 -0.17616,-0.100092 -0.44442,-0.100092 -0.2122,0 -0.39237,0.08808 -0.18017,0.08408 -0.28828,0.23623 -0.1081,0.152141 -0.1081,0.36835 h -1.15711 q 0,-0.480462 0.25625,-0.836798 0.26025,-0.356337 0.69666,-0.556529 0.43642,-0.200192 0.96092,-0.200192 0.59256,0 1.03699,0.192184 0.44442,0.188179 0.69266,0.556528 0.24824,0.36835 0.24824,0.912872 0,0.276266 -0.12812,0.536514 -0.12813,0.256245 -0.36836,0.464438 -0.23622,0.204196 -0.57655,0.328314 -0.34032,0.120114 -0.76473,0.120114 h -0.80076 z m 0,0.876834 v -0.596571 h 0.80076 q 0.47646,0 0.8368,0.108108 0.36035,0.108101 0.60458,0.312297 0.24423,0.200192 0.36835,0.476451 0.12412,0.272261 0.12412,0.604579 0,0.408392 -0.15615,0.728697 -0.15615,0.316301 -0.44042,0.536508 -0.28027,0.220213 -0.65662,0.336322 -0.37637,0.112105 -0.82079,0.112105 -0.36835,0 -0.72469,-0.100092 -0.35234,-0.104104 -0.64061,-0.308293 -0.28427,-0.2082 -0.45644,-0.520497 -0.16816,-0.316301 -0.16816,-0.748719 h 1.1571 q 0,0.224218 0.11212,0.400384 0.1121,0.176166 0.30829,0.276265 0.20019,0.100093 0.44442,0.100093 0.27627,0 0.47245,-0.100093 0.20019,-0.104096 0.30429,-0.288278 0.1081,-0.188179 0.1081,-0.436415 0,-0.320305 -0.11611,-0.512488 -0.11611,-0.196188 -0.33231,-0.288272 -0.21621,-0.09209 -0.51249,-0.09209 z"
         id="path21" /><path
         style="font-weight:bold;font-family:Roboto;-inkscape-font-specification:'Roboto Bold';white-space:pre;fill:#e6642f;fill-opacity:1;stroke-width:1.03305;stroke-linecap:round;stroke-linejoin:round"
         d="m 182.72414,64.610993 v 0.900859 h -3.9878 v -0.768733 l 1.8858,-2.021932 q 0.28427,-0.316301 0.44842,-0.556528 0.16416,-0.244232 0.23623,-0.436415 0.0761,-0.196187 0.0761,-0.372361 0,-0.264246 -0.0881,-0.452431 -0.0881,-0.192184 -0.26025,-0.29628 -0.16816,-0.108101 -0.4164,-0.108101 -0.26425,0 -0.45643,0.132126 -0.18818,0.128122 -0.28828,0.356337 -0.0961,0.228221 -0.0961,0.516493 h -1.1571 q 0,-0.520497 0.24824,-0.952908 0.24823,-0.436415 0.70067,-0.692659 0.45243,-0.260249 1.07302,-0.260249 0.61258,0 1.03298,0.200192 0.4244,0.196188 0.64061,0.568541 0.22021,0.36835 0.22021,0.880838 0,0.288279 -0.0921,0.564537 -0.0921,0.272262 -0.26426,0.544523 -0.16816,0.268257 -0.40839,0.544516 -0.24023,0.276265 -0.5325,0.572545 l -1.01297,1.13709 z"
         id="path20" /><path
         style="font-weight:bold;font-family:Roboto;-inkscape-font-specification:'Roboto Bold';white-space:pre;fill:#fefefe;fill-opacity:1;stroke-width:1.03305;stroke-linecap:round;stroke-linejoin:round"
         d="m 177.9556,62.084581 v 1.00896 q 0,0.656628 -0.14014,1.133085 -0.14013,0.472446 -0.40439,0.776735 -0.26025,0.300291 -0.62059,0.44443 -0.36034,0.144132 -0.80076,0.144132 -0.35234,0 -0.65662,-0.08808 -0.3043,-0.09209 -0.54853,-0.284274 -0.24023,-0.192183 -0.41639,-0.484459 -0.17217,-0.296286 -0.26426,-0.704671 -0.0921,-0.408392 -0.0921,-0.936898 v -1.00896 q 0,-0.656628 0.14014,-1.12507 0.14414,-0.472453 0.40438,-0.772737 0.26426,-0.300291 0.6246,-0.440419 0.36034,-0.144139 0.80076,-0.144139 0.35234,0 0.65262,0.09208 0.3043,0.08809 0.54853,0.276265 0.24423,0.188179 0.41639,0.484459 0.17217,0.292283 0.26425,0.700675 0.0921,0.40438 0.0921,0.928882 z m -1.15711,1.161108 v -1.31726 q 0,-0.316301 -0.036,-0.552524 -0.032,-0.236223 -0.10009,-0.400384 -0.0681,-0.168158 -0.16816,-0.272254 -0.1001,-0.104104 -0.22822,-0.152148 -0.12812,-0.04804 -0.28427,-0.04804 -0.19619,0 -0.34833,0.07607 -0.14815,0.07607 -0.25224,0.244231 -0.1041,0.164154 -0.16016,0.440419 -0.0521,0.272262 -0.0521,0.66463 v 1.31726 q 0,0.316301 0.032,0.556528 0.036,0.240227 0.1041,0.412396 0.0721,0.168158 0.16816,0.276259 0.10009,0.104103 0.22822,0.152148 0.13212,0.04804 0.28827,0.04804 0.19218,0 0.34032,-0.07607 0.15215,-0.08008 0.25625,-0.248243 0.1081,-0.172162 0.16015,-0.448427 0.0521,-0.276259 0.0521,-0.672638 z"
         id="path19" /><path
         style="font-weight:bold;font-family:Roboto;-inkscape-font-specification:'Roboto Bold';white-space:pre;fill:#e6642f;fill-opacity:1;stroke-width:1.03305;stroke-linecap:round;stroke-linejoin:round"
         d="m 173.31517,64.610993 v 0.900859 h -3.98781 v -0.768733 l 1.88581,-2.021932 q 0.28427,-0.316301 0.44842,-0.556528 0.16416,-0.244232 0.23623,-0.436415 0.0761,-0.196187 0.0761,-0.372361 0,-0.264246 -0.0881,-0.452431 -0.0881,-0.192184 -0.26025,-0.29628 -0.16816,-0.108101 -0.4164,-0.108101 -0.26425,0 -0.45643,0.132126 -0.18818,0.128122 -0.28828,0.356337 -0.0961,0.228221 -0.0961,0.516493 h -1.15711 q 0,-0.520497 0.24824,-0.952908 0.24824,-0.436415 0.70067,-0.692659 0.45243,-0.260249 1.07303,-0.260249 0.61258,0 1.03298,0.200192 0.4244,0.196188 0.64061,0.568541 0.22021,0.36835 0.22021,0.880838 0,0.288279 -0.0921,0.564537 -0.0921,0.272262 -0.26426,0.544523 -0.16816,0.268257 -0.40839,0.544516 -0.24023,0.276265 -0.53251,0.572545 l -1.01296,1.13709 z"
         id="path18" /><text
         xml:space="preserve"
         style="font-weight:bold;font-size:11.1747px;font-family:Roboto;-inkscape-font-specification:'Roboto Bold';fill:#ffffff;fill-opacity:1;stroke-width:1.40784;stroke-linecap:round;stroke-linejoin:round"
         x="68.058266"
         y="81.365616"
         id="text5"><tspan
           sodipodi:role="line"
           id="tspan5"
           style="stroke-width:1.40784"
           x="68.058266"
           y="81.365616">Interesting Topics/Problems - 1</tspan></text><g
         id="g35"
         transform="matrix(0.34735299,0,0,0.34735299,59.702522,4.9328345)"><path
           style="fill:#fafbfb"
           d="m 118.70569,176.65533 c -0.0402,-0.10478 -1.90618,-4.95946 -4.14657,-10.78818 -2.24039,-5.82872 -4.07344,-10.61979 -4.07344,-10.64683 0,-0.027 0.73504,-0.0492 1.63342,-0.0492 h 1.63341 l 4.01306,10.43517 c 2.20718,5.73934 4.08183,10.61614 4.1659,10.83733 l 0.15285,0.40217 h -1.65275 c -1.63585,0 -1.6535,-0.002 -1.72588,-0.1905 z"
           id="path27" /><path
           style="fill:#fafbfb"
           d="m 156.22781,177.52456 c -3.22139,-1.75191 -5.58669,-5.52868 -6.03655,-9.63881 -0.14348,-1.31088 -0.0605,-3.84973 0.16127,-4.93393 0.63112,-3.08552 2.41184,-6.02304 4.68141,-7.72256 0.62021,-0.46443 1.74283,-1.1239 1.80588,-1.06084 0.0531,0.0531 0.63585,1.43419 0.63585,1.50699 0,0.0363 -0.14839,0.16412 -0.32977,0.28415 -1.31873,0.8727 -2.66669,2.84834 -3.35261,4.91379 -0.53826,1.6208 -0.71855,2.91162 -0.71959,5.15198 -0.002,3.32977 0.6249,5.70613 2.08772,7.91959 0.48692,0.73679 1.59587,1.92039 2.05134,2.18944 0.31593,0.18663 0.31258,0.22629 -0.0943,1.11615 l -0.27774,0.60735 z"
           id="path26" /><path
           style="fill:#e2622e"
           d="m 175.95231,170.77799 0.023,-1.58051 4.17338,-1.58392 c 2.29536,-0.87116 4.19251,-1.60306 4.2159,-1.62645 0.0234,-0.0234 -1.72129,-0.69993 -3.87705,-1.50343 -2.15576,-0.80351 -4.06244,-1.51717 -4.23706,-1.58591 l -0.3175,-0.12498 v -1.55714 c 0,-1.10402 0.0279,-1.55714 0.096,-1.55714 0.072,0 10.47559,4.43947 11.56685,4.93586 0.18578,0.0845 0.19047,0.11933 0.1893,1.40656 l -0.001,1.31991 -5.86197,2.51955 c -3.22408,1.38575 -5.89138,2.51923 -5.92733,2.51883 -0.036,-3.9e-4 -0.055,-0.71195 -0.0423,-1.58123 z"
           id="path35" /><path
           style="fill:#e2622e"
           d="m 84.239015,169.8297 -5.715,-2.5249 -0.0229,-1.30431 -0.0229,-1.30432 4.891234,-2.15184 c 2.690178,-1.18351 5.300808,-2.33415 5.801399,-2.55698 l 0.910167,-0.40515 v 1.627 1.627 l -4.027588,1.56148 c -2.215174,0.85882 -4.039972,1.58212 -4.055108,1.60732 -0.01514,0.0252 1.311503,0.55593 2.948088,1.17937 1.636584,0.62344 3.461383,1.32194 4.055108,1.55222 l 1.0795,0.4187 v 1.60161 c 0,0.88088 -0.02857,1.60073 -0.0635,1.59965 -0.03493,-0.001 -2.63525,-1.13816 -5.7785,-2.52685 z"
           id="path34" /><path
           style="fill:#e2622e"
           d="m 97.906609,176.52834 c 0.529559,-1.48245 7.583891,-21.09517 7.628481,-21.209 0.0517,-0.13188 0.19664,-0.14817 1.31898,-0.14817 0.69352,0 1.26094,0.0312 1.26094,0.0694 0,0.0517 -6.36357,17.85021 -7.55054,21.11842 l -0.17681,0.48684 h -1.297236 -1.297232 z"
           id="path33" /><path
           style="fill:#e2622e"
           d="m 165.95873,177.52734 c -2.30972,-1.21973 -4.48439,-3.95196 -5.42814,-6.81984 -0.54005,-1.6411 -0.6346,-2.33072 -0.63843,-4.65666 -0.003,-1.87603 0.0184,-2.22474 0.18921,-3.06729 0.63621,-3.13856 2.39872,-6.04639 4.72391,-7.79364 0.49344,-0.3708 1.61741,-1.03474 1.75167,-1.03474 0.0217,0 0.18531,0.34766 0.36349,0.77258 0.31569,0.75282 0.31978,0.77561 0.15977,0.89115 -1.18743,0.8575 -2.11661,1.95358 -2.82429,3.33161 -1.10338,2.14853 -1.5028,4.22612 -1.42333,7.40352 0.0701,2.80166 0.50918,4.65445 1.55625,6.56647 0.62585,1.14284 1.87691,2.61002 2.57943,3.025 0.29501,0.17427 0.28986,0.2245 -0.11319,1.10309 l -0.27774,0.60543 z"
           id="path32" /><path
           style="fill:#e2622e"
           d="m 138.42568,166.0085 v -11.85333 h 1.10066 1.10067 v 11.85333 11.85334 h -1.10067 -1.10066 z"
           id="path31" /><path
           style="fill:#e2622e"
           d="m 130.29768,166.0105 v -11.85579 h 1.14329 1.1433 l -0.0215,11.83217 -0.0215,11.83216 -1.12183,0.0236 -1.12183,0.0236 z"
           id="path30" /></g><path
         style="font-weight:bold;font-family:Roboto;-inkscape-font-specification:'Roboto Bold';white-space:pre;fill:#e6642f;fill-opacity:1;stroke-width:1.03305;stroke-linecap:round;stroke-linejoin:round"
         d="m 161.07532,59.681734 v 5.829558 h -1.20115 v -5.829558 z m 3.49132,0 -2.3102,2.878744 -1.33327,1.433362 -0.2162,-1.137082 0.90086,-1.233178 1.48541,-1.941846 z m -1.3653,5.829558 -1.71763,-2.69457 0.88884,-0.744714 2.25015,3.439284 z"
         id="path42" /><path
         style="font-weight:bold;font-family:Roboto;-inkscape-font-specification:'Roboto Bold';white-space:pre;fill:#e6642f;fill-opacity:1;stroke-width:1.03305;stroke-linecap:round;stroke-linejoin:round"
         d="m 158.7531,59.681734 v 5.829558 h -1.19714 v -5.829558 z"
         id="path41" /><path
         style="font-weight:bold;font-family:Roboto;-inkscape-font-specification:'Roboto Bold';white-space:pre;fill:#fefefe;fill-opacity:1;stroke-width:1.03305;stroke-linecap:round;stroke-linejoin:round"
         d="m 156.78723,64.574394 v 0.936898 h -2.9348 v -0.936898 z m -2.54643,-4.89266 v 5.829558 h -1.20115 v -5.829558 z"
         id="path40" /><path
         style="font-weight:bold;font-family:Roboto;-inkscape-font-specification:'Roboto Bold';white-space:pre;fill:#e6642f;fill-opacity:1;stroke-width:1.03305;stroke-linecap:round;stroke-linejoin:round"
         d="m 149.90066,60.678681 -1.58551,4.832611 h -1.27722 l 2.16607,-5.829558 h 0.81277 z m 1.31726,4.832611 -1.58952,-4.832611 -0.12812,-0.996947 h 0.82078 l 2.17808,5.829558 z m -0.0721,-2.170075 v 0.940902 h -3.07894 v -0.940902 z"
         id="path39" /><path
         style="font-weight:bold;font-family:Roboto;-inkscape-font-specification:'Roboto Bold';white-space:pre;fill:#e6642f;fill-opacity:1;stroke-width:1.03305;stroke-linecap:round;stroke-linejoin:round"
         d="m 144.57558,64.294131 1.37331,-4.612397 h 1.33728 l -2.02994,5.829558 h -0.88083 z m -1.2652,-4.612397 1.3693,4.612397 0.2082,1.217161 h -0.88885 l -2.01792,-5.829558 z"
         id="path38" /><path
         style="font-weight:bold;font-family:Roboto;-inkscape-font-specification:'Roboto Bold';white-space:pre;fill:#fefefe;fill-opacity:1;stroke-width:1.03305;stroke-linecap:round;stroke-linejoin:round"
         d="m 141.35251,59.681734 v 5.829558 h -1.19714 v -5.829558 z"
         id="path37" /><path
         style="font-weight:bold;font-family:Roboto;-inkscape-font-specification:'Roboto Bold';white-space:pre;fill:#e6642f;fill-opacity:1;stroke-width:1.03305;stroke-linecap:round;stroke-linejoin:round"
         d="m 138.17348,62.055991 v 0.936898 h -3.0429 v -0.936898 z m -2.68656,-2.374257 v 5.829558 h -1.20115 v -5.829558 z m 3.54338,0 v 5.829558 h -1.19714 v -5.829558 z"
         id="path36" /><path
         style="font-weight:bold;font-family:Roboto;-inkscape-font-specification:'Roboto Bold';white-space:pre;fill:#e6642f;fill-opacity:1;stroke-width:1.03305;stroke-linecap:round;stroke-linejoin:round"
         d="m 132.27186,63.985832 q 0,-0.156145 -0.048,-0.280263 -0.0441,-0.128122 -0.16816,-0.232226 -0.12412,-0.108101 -0.34833,-0.212197 -0.22421,-0.104104 -0.58056,-0.216209 -0.39637,-0.128122 -0.75271,-0.288271 -0.35234,-0.160157 -0.6246,-0.372361 -0.26826,-0.216202 -0.4244,-0.500476 -0.15215,-0.284267 -0.15215,-0.660632 0,-0.364345 0.16015,-0.660625 0.16016,-0.300291 0.44843,-0.512489 0.28828,-0.216209 0.68065,-0.332318 0.39638,-0.116109 0.86883,-0.116109 0.64461,0 1.12507,0.232218 0.48046,0.232226 0.74471,0.636607 0.26826,0.404388 0.26826,0.924885 h -1.19314 q 0,-0.256244 -0.1081,-0.448428 -0.1041,-0.196187 -0.32031,-0.308292 -0.2122,-0.116117 -0.53651,-0.116117 -0.3123,0 -0.52049,0.09609 -0.2082,0.09609 -0.3123,0.256245 -0.1041,0.156145 -0.1041,0.352332 0,0.148144 0.0721,0.268257 0.0761,0.120114 0.22421,0.224218 0.14814,0.104096 0.36435,0.196187 0.2162,0.09208 0.50047,0.18017 0.47646,0.14414 0.8368,0.32431 0.36435,0.180171 0.60858,0.404381 0.24424,0.224217 0.36836,0.508491 0.12411,0.284267 0.12411,0.644608 0,0.380369 -0.14814,0.680654 -0.14814,0.300284 -0.42841,0.508484 -0.28027,0.2082 -0.66864,0.316301 -0.38837,0.108101 -0.86882,0.108101 -0.43241,0 -0.85282,-0.112105 -0.4204,-0.116109 -0.76473,-0.348335 -0.34032,-0.232219 -0.54451,-0.59256 -0.2042,-0.360348 -0.2042,-0.852815 h 1.20515 q 0,0.272261 0.0841,0.46044 0.0841,0.188179 0.23622,0.304288 0.15615,0.11611 0.36835,0.172162 0.21621,0.05207 0.47246,0.05207 0.31229,0 0.51249,-0.08809 0.20419,-0.09209 0.30028,-0.248236 0.1001,-0.156152 0.1001,-0.352339 z"
         id="text35" /></g></g></svg>
